<svg width="534" height="117" viewBox="0 0 534 117" fill="none" xmlns="http://www.w3.org/2000/svg">
<path d="M42.5546 116.127H13.7402V34.0703L42.5546 57.7969V116.127Z" fill="#D9D9D9"/>
<path d="M36.3917 116.127V39.1889L70.8089 14.7958V116.127H78.7329V0L28.4678 35.4566V116.127H36.3917Z" fill="black"/>
<path d="M136.602 109.223H78.0127V116.154H136.602V109.223Z" fill="#E6AB2E"/>
<path d="M119.286 112.235H90.4717V51.9316L119.286 75.6582V112.235Z" fill="#E6AB2E"/>
<path d="M51.0125 116.127L78.733 88.455L106.427 116.127H127.397L78.733 67.501L30.042 116.127H51.0125Z" fill="#D9D9D9"/>
<path d="M78.7324 67.501V88.455L106.426 116.127H127.397L78.7324 67.501Z" fill="black"/>
<path d="M78.706 109.223H0V116.154H78.706V109.223Z" fill="black"/>
<path d="M151.396 74H146.387L160.874 34.5455H165.806L180.293 74H175.284L163.494 40.7873H163.186L151.396 74ZM153.245 58.5881H173.435V62.8263H153.245V58.5881ZM186.439 74V34.5455H199.77C202.865 34.5455 205.396 35.1041 207.361 36.2215C209.338 37.326 210.803 38.8223 211.753 40.7102C212.703 42.5982 213.179 44.7045 213.179 47.0291C213.179 49.3538 212.703 51.4665 211.753 53.3673C210.815 55.2681 209.364 56.7836 207.399 57.9138C205.434 59.0312 202.917 59.5898 199.847 59.5898H190.292V55.3516H199.693C201.812 55.3516 203.514 54.9855 204.798 54.2535C206.083 53.5214 207.014 52.5325 207.592 51.2867C208.182 50.028 208.478 48.6088 208.478 47.0291C208.478 45.4494 208.182 44.0366 207.592 42.7908C207.014 41.545 206.076 40.569 204.779 39.8626C203.482 39.1433 201.761 38.7837 199.616 38.7837H191.217V74H186.439ZM220.875 34.5455H226.577L239.986 67.2958H240.448L253.856 34.5455H259.559V74H255.089V44.0238H254.704L242.375 74H238.059L225.73 44.0238H225.344V74H220.875V34.5455ZM292.333 74L278.771 55.891H273.916V74H269.138V34.5455H273.916V51.6527H275.997L291.794 34.5455H297.496L281.545 51.8839L298.036 74H292.333ZM305.828 74H300.819L315.307 34.5455H320.238L334.726 74H329.717L317.927 40.7873H317.618L305.828 74ZM307.678 58.5881H327.867V62.8263H307.678V58.5881ZM340.871 74V34.5455H354.203C357.298 34.5455 359.828 35.1041 361.793 36.2215C363.771 37.326 365.235 38.8223 366.185 40.7102C367.136 42.5982 367.611 44.7045 367.611 47.0291C367.611 49.3538 367.136 51.4665 366.185 53.3673C365.248 55.2681 363.796 56.7836 361.831 57.9138C359.866 59.0312 357.349 59.5898 354.28 59.5898H344.724V55.3516H354.125C356.245 55.3516 357.946 54.9855 359.231 54.2535C360.515 53.5214 361.446 52.5325 362.024 51.2867C362.615 50.028 362.91 48.6088 362.91 47.0291C362.91 45.4494 362.615 44.0366 362.024 42.7908C361.446 41.545 360.509 40.569 359.211 39.8626C357.914 39.1433 356.193 38.7837 354.048 38.7837H345.649V74H340.871ZM398.502 74L384.94 55.891H380.085V74H375.307V34.5455H380.085V51.6527H382.166L397.963 34.5455H403.665L387.714 51.8839L404.205 74H398.502ZM411.997 74H406.988L421.476 34.5455H426.407L440.895 74H435.886L424.096 40.7873H423.787L411.997 74ZM413.847 58.5881H434.036V62.8263H413.847V58.5881ZM476.934 46.875H472.157C471.874 45.5008 471.38 44.2935 470.673 43.2532C469.98 42.2129 469.132 41.3395 468.13 40.6332C467.141 39.9139 466.043 39.3745 464.836 39.0149C463.629 38.6553 462.37 38.4755 461.06 38.4755C458.671 38.4755 456.507 39.0791 454.568 40.2864C452.641 41.4937 451.107 43.2725 449.964 45.6228C448.833 47.9731 448.268 50.8564 448.268 54.2727C448.268 57.689 448.833 60.5724 449.964 62.9227C451.107 65.273 452.641 67.0518 454.568 68.2591C456.507 69.4663 458.671 70.07 461.06 70.07C462.37 70.07 463.629 69.8902 464.836 69.5305C466.043 69.1709 467.141 68.6379 468.13 67.9316C469.132 67.2123 469.98 66.3326 470.673 65.2923C471.38 64.2391 471.874 63.0318 472.157 61.6705H476.934C476.575 63.6868 475.92 65.4913 474.969 67.0839C474.019 68.6765 472.837 70.0314 471.425 71.1488C470.012 72.2533 468.426 73.0945 466.666 73.6725C464.92 74.2504 463.051 74.5394 461.06 74.5394C457.695 74.5394 454.703 73.7174 452.083 72.0735C449.463 70.4296 447.401 68.0921 445.899 65.0611C444.396 62.0301 443.645 58.4339 443.645 54.2727C443.645 50.1115 444.396 46.5154 445.899 43.4844C447.401 40.4534 449.463 38.1159 452.083 36.4719C454.703 34.828 457.695 34.006 461.06 34.006C463.051 34.006 464.92 34.295 466.666 34.873C468.426 35.4509 470.012 36.2986 471.425 37.4159C472.837 38.5204 474.019 39.869 474.969 41.4616C475.92 43.0413 476.575 44.8458 476.934 46.875Z" fill="white"/>
<path d="M157.113 102.67H159.629C159.565 104.037 159.287 105.217 158.795 106.211C158.312 107.195 157.605 107.952 156.676 108.48C155.755 109.009 154.602 109.273 153.217 109.273C152.223 109.273 151.326 109.077 150.523 108.686C149.721 108.294 149.033 107.733 148.459 107.004C147.894 106.266 147.461 105.382 147.16 104.352C146.859 103.322 146.709 102.164 146.709 100.879V97.2012C146.709 95.9251 146.859 94.7721 147.16 93.7422C147.47 92.7122 147.912 91.8327 148.486 91.1035C149.07 90.3652 149.776 89.8001 150.605 89.4082C151.444 89.0163 152.392 88.8203 153.449 88.8203C154.743 88.8203 155.837 89.0801 156.73 89.5996C157.633 90.11 158.326 90.862 158.809 91.8555C159.301 92.8398 159.574 94.0475 159.629 95.4785H157.113C157.049 94.4303 156.885 93.5781 156.621 92.9219C156.357 92.2565 155.965 91.7689 155.445 91.459C154.935 91.14 154.27 90.9805 153.449 90.9805C152.72 90.9805 152.087 91.1263 151.549 91.418C151.02 91.7096 150.583 92.1289 150.236 92.6758C149.899 93.2135 149.644 93.8652 149.471 94.6309C149.307 95.3874 149.225 96.235 149.225 97.1738V100.879C149.225 101.754 149.293 102.57 149.43 103.326C149.576 104.083 149.803 104.748 150.113 105.322C150.432 105.887 150.847 106.329 151.357 106.648C151.868 106.967 152.488 107.127 153.217 107.127C154.137 107.127 154.867 106.977 155.404 106.676C155.942 106.375 156.339 105.896 156.594 105.24C156.858 104.584 157.031 103.727 157.113 102.67ZM179.14 97.6523V99.7988H170.513V97.6523H179.14ZM170.855 89.0938V109H168.339V89.0938H170.855ZM181.368 89.0938V109H178.853V89.0938H181.368ZM191.841 90.8574L186.4 109H183.83L190.242 89.0938H191.855L191.841 90.8574ZM196.244 109L190.802 90.8574L190.775 89.0938H192.402L198.814 109H196.244ZM196.244 101.631V103.791H186.646V101.631H196.244ZM201.781 89.0938H204.215L209.424 105.322L214.619 89.0938H217.053L210.367 109H208.453L201.781 89.0938ZM200.989 89.0938H203.121L203.49 101.234V109H200.989V89.0938ZM215.699 89.0938H217.832V109H215.33V101.234L215.699 89.0938ZM224.218 104.434L231.97 89.0938H234.485V109H231.97V93.6465L224.218 109H221.716V89.0938H224.218V104.434ZM254.228 102.67H256.744C256.68 104.037 256.402 105.217 255.91 106.211C255.427 107.195 254.721 107.952 253.791 108.48C252.87 109.009 251.717 109.273 250.332 109.273C249.338 109.273 248.441 109.077 247.639 108.686C246.837 108.294 246.148 107.733 245.574 107.004C245.009 106.266 244.576 105.382 244.275 104.352C243.975 103.322 243.824 102.164 243.824 100.879V97.2012C243.824 95.9251 243.975 94.7721 244.275 93.7422C244.585 92.7122 245.027 91.8327 245.601 91.1035C246.185 90.3652 246.891 89.8001 247.721 89.4082C248.559 89.0163 249.507 88.8203 250.564 88.8203C251.859 88.8203 252.952 89.0801 253.846 89.5996C254.748 90.11 255.441 90.862 255.924 91.8555C256.416 92.8398 256.689 94.0475 256.744 95.4785H254.228C254.165 94.4303 254.001 93.5781 253.736 92.9219C253.472 92.2565 253.08 91.7689 252.56 91.459C252.05 91.14 251.385 90.9805 250.564 90.9805C249.835 90.9805 249.202 91.1263 248.664 91.418C248.135 91.7096 247.698 92.1289 247.351 92.6758C247.014 93.2135 246.759 93.8652 246.586 94.6309C246.422 95.3874 246.34 96.235 246.34 97.1738V100.879C246.34 101.754 246.408 102.57 246.545 103.326C246.691 104.083 246.919 104.748 247.228 105.322C247.547 105.887 247.962 106.329 248.473 106.648C248.983 106.967 249.603 107.127 250.332 107.127C251.253 107.127 251.982 106.977 252.519 106.676C253.057 106.375 253.454 105.896 253.709 105.24C253.973 104.584 254.146 103.727 254.228 102.67ZM265.577 89.0938V109H263.088V89.0938H265.577ZM270.813 89.0938V91.2539H257.866V89.0938H270.813ZM279.536 101.193H275.189V99.0469H279.536C280.356 99.0469 281.017 98.8828 281.519 98.5547C282.029 98.2266 282.398 97.7708 282.626 97.1875C282.863 96.6042 282.981 95.9388 282.981 95.1914C282.981 94.5078 282.863 93.8652 282.626 93.2637C282.398 92.6621 282.029 92.179 281.519 91.8145C281.017 91.4408 280.356 91.2539 279.536 91.2539H275.708V109H273.192V89.0938H279.536C280.821 89.0938 281.906 89.3535 282.79 89.873C283.674 90.3926 284.344 91.1126 284.8 92.0332C285.265 92.9447 285.497 93.9883 285.497 95.1641C285.497 96.4401 285.265 97.5293 284.8 98.4316C284.344 99.334 283.674 100.022 282.79 100.496C281.906 100.961 280.821 101.193 279.536 101.193ZM301.111 97.3242V100.783C301.111 102.187 300.956 103.422 300.646 104.488C300.345 105.546 299.903 106.43 299.32 107.141C298.737 107.852 298.035 108.385 297.214 108.74C296.394 109.096 295.469 109.273 294.439 109.273C293.446 109.273 292.539 109.096 291.718 108.74C290.898 108.385 290.192 107.852 289.599 107.141C289.007 106.43 288.546 105.546 288.218 104.488C287.899 103.422 287.74 102.187 287.74 100.783V97.3242C287.74 95.9206 287.899 94.6901 288.218 93.6328C288.537 92.5664 288.993 91.6777 289.586 90.9668C290.178 90.2559 290.884 89.7227 291.705 89.3672C292.525 89.0026 293.432 88.8203 294.425 88.8203C295.455 88.8203 296.38 89.0026 297.201 89.3672C298.03 89.7227 298.732 90.2559 299.306 90.9668C299.89 91.6777 300.336 92.5664 300.646 93.6328C300.956 94.6901 301.111 95.9206 301.111 97.3242ZM298.623 100.783V97.2969C298.623 96.2031 298.532 95.2643 298.349 94.4805C298.167 93.6875 297.898 93.0404 297.543 92.5391C297.187 92.0378 296.75 91.6686 296.23 91.4316C295.711 91.1855 295.109 91.0625 294.425 91.0625C293.778 91.0625 293.195 91.1855 292.675 91.4316C292.165 91.6686 291.727 92.0378 291.363 92.5391C290.998 93.0404 290.716 93.6875 290.515 94.4805C290.324 95.2643 290.228 96.2031 290.228 97.2969V100.783C290.228 101.886 290.324 102.834 290.515 103.627C290.716 104.411 290.998 105.058 291.363 105.568C291.737 106.07 292.183 106.443 292.703 106.689C293.222 106.926 293.801 107.045 294.439 107.045C295.123 107.045 295.724 106.926 296.244 106.689C296.772 106.443 297.21 106.07 297.556 105.568C297.912 105.058 298.176 104.411 298.349 103.627C298.532 102.834 298.623 101.886 298.623 100.783ZM307.072 104.434L314.824 89.0938H317.34V109H314.824V93.6465L307.072 109H304.57V89.0938H307.072V104.434ZM327.239 89.0938V109H324.751V89.0938H327.239ZM332.475 89.0938V91.2539H319.528V89.0938H332.475ZM344.439 102.67H346.954C346.891 104.037 346.613 105.217 346.12 106.211C345.637 107.195 344.931 107.952 344.001 108.48C343.081 109.009 341.928 109.273 340.542 109.273C339.549 109.273 338.651 109.077 337.849 108.686C337.047 108.294 336.359 107.733 335.784 107.004C335.219 106.266 334.786 105.382 334.486 104.352C334.185 103.322 334.034 102.164 334.034 100.879V97.2012C334.034 95.9251 334.185 94.7721 334.486 93.7422C334.796 92.7122 335.238 91.8327 335.812 91.1035C336.395 90.3652 337.102 89.8001 337.931 89.4082C338.769 89.0163 339.717 88.8203 340.775 88.8203C342.069 88.8203 343.163 89.0801 344.056 89.5996C344.958 90.11 345.651 90.862 346.134 91.8555C346.626 92.8398 346.9 94.0475 346.954 95.4785H344.439C344.375 94.4303 344.211 93.5781 343.947 92.9219C343.682 92.2565 343.29 91.7689 342.771 91.459C342.26 91.14 341.595 90.9805 340.775 90.9805C340.046 90.9805 339.412 91.1263 338.874 91.418C338.346 91.7096 337.908 92.1289 337.562 92.6758C337.225 93.2135 336.969 93.8652 336.796 94.6309C336.632 95.3874 336.55 96.235 336.55 97.1738V100.879C336.55 101.754 336.618 102.57 336.755 103.326C336.901 104.083 337.129 104.748 337.439 105.322C337.758 105.887 338.172 106.329 338.683 106.648C339.193 106.967 339.813 107.127 340.542 107.127C341.463 107.127 342.192 106.977 342.73 106.676C343.268 106.375 343.664 105.896 343.919 105.24C344.184 104.584 344.357 103.727 344.439 102.67ZM359.027 101.248H354.707L353.435 100.715C352.196 100.259 351.243 99.5618 350.578 98.623C349.922 97.6751 349.594 96.4993 349.594 95.0957C349.594 93.8105 349.835 92.7214 350.318 91.8281C350.801 90.9349 351.489 90.2559 352.383 89.791C353.285 89.3262 354.347 89.0938 355.568 89.0938H361.01V109H358.494V91.2539H355.568C354.411 91.2539 353.545 91.6003 352.971 92.293C352.396 92.9857 352.109 93.9199 352.109 95.0957C352.109 95.8613 352.237 96.5449 352.492 97.1465C352.756 97.748 353.148 98.222 353.668 98.5684C354.187 98.9147 354.839 99.0879 355.623 99.0879H359.041L359.027 101.248ZM355.664 99.8809L351.617 109H348.937L353.121 99.8809H355.664ZM381.122 89.0938V91.2539H373.302V109H370.786V89.0938H381.122ZM372.769 97.2012H377.294C378.524 97.2012 379.563 97.4473 380.411 97.9395C381.268 98.4225 381.915 99.1016 382.352 99.9766C382.799 100.852 383.022 101.877 383.022 103.053C383.022 103.928 382.895 104.73 382.64 105.459C382.394 106.179 382.024 106.808 381.532 107.346C381.049 107.874 380.452 108.285 379.741 108.576C379.03 108.859 378.214 109 377.294 109H370.786V89.0938H373.302V106.854H377.294C378.06 106.854 378.675 106.676 379.14 106.32C379.614 105.956 379.96 105.482 380.179 104.898C380.397 104.315 380.507 103.691 380.507 103.025C380.507 102.36 380.397 101.749 380.179 101.193C379.96 100.637 379.614 100.195 379.14 99.8672C378.675 99.5299 378.06 99.3613 377.294 99.3613H372.769V97.2012ZM390.529 102.396L394.753 89.0938H397.652L391.923 105.678C391.741 106.143 391.545 106.594 391.335 107.031C391.135 107.46 390.889 107.842 390.597 108.18C390.306 108.517 389.941 108.786 389.503 108.986C389.066 109.187 388.519 109.287 387.863 109.287C387.662 109.287 387.43 109.273 387.166 109.246C386.91 109.228 386.746 109.205 386.673 109.178L386.728 107.072C386.81 107.09 386.979 107.109 387.234 107.127C387.498 107.136 387.685 107.141 387.794 107.141C388.205 107.141 388.519 107.036 388.738 106.826C388.966 106.617 389.143 106.352 389.271 106.033C389.399 105.705 389.522 105.372 389.64 105.035L390.529 102.396ZM387.357 89.0938L391.65 101.494L392.238 103.941L390.119 104.105L384.554 89.0938H387.357ZM412.336 106.854V109H399.854V106.854H412.336ZM400.236 106.854V113.895H397.734L397.721 106.854H400.236ZM414.524 106.854L414.496 113.881H412.008V106.854H414.524ZM409.984 89.0938V91.2539H402.766V89.0938H409.984ZM412.186 89.0938V109H409.67V89.0938H412.186ZM401.904 89.0938H404.42L404.065 97.1055C404.019 98.3086 403.928 99.4206 403.791 100.441C403.654 101.453 403.477 102.378 403.258 103.217C403.048 104.055 402.807 104.807 402.533 105.473C402.26 106.129 401.964 106.699 401.645 107.182C401.326 107.656 400.988 108.048 400.633 108.357C400.277 108.658 399.913 108.872 399.539 109H398.486V106.854H399.184C399.384 106.598 399.603 106.229 399.84 105.746C400.086 105.263 400.323 104.639 400.551 103.873C400.788 103.098 400.993 102.155 401.166 101.043C401.348 99.931 401.471 98.6185 401.535 97.1055L401.904 89.0938ZM422.112 102.396L426.337 89.0938H429.235L423.506 105.678C423.324 106.143 423.128 106.594 422.919 107.031C422.718 107.46 422.472 107.842 422.18 108.18C421.889 108.517 421.524 108.786 421.087 108.986C420.649 109.187 420.102 109.287 419.446 109.287C419.245 109.287 419.013 109.273 418.749 109.246C418.493 109.228 418.329 109.205 418.256 109.178L418.311 107.072C418.393 107.09 418.562 107.109 418.817 107.127C419.081 107.136 419.268 107.141 419.378 107.141C419.788 107.141 420.102 107.036 420.321 106.826C420.549 106.617 420.727 106.352 420.854 106.033C420.982 105.705 421.105 105.372 421.223 105.035L422.112 102.396ZM418.94 89.0938L423.233 101.494L423.821 103.941L421.702 104.105L416.137 89.0938H418.94ZM451.945 106.922L451.698 113.799H449.552V109H447.87V106.922H451.945ZM431.929 89.0938H434.458V106.854H439.845V89.0938H442.347V106.854H447.693V89.0938H450.208V109H431.929V89.0938ZM465.521 106.854V109H456.881V106.854H465.521ZM457.332 89.0938V109H454.816V89.0938H457.332ZM464.359 97.6523V99.7988H456.881V97.6523H464.359ZM465.385 89.0938V91.2539H456.881V89.0938H465.385ZM478.879 106.854V109H470.239V106.854H478.879ZM470.69 89.0938V109H468.174V89.0938H470.69ZM477.717 97.6523V99.7988H470.239V97.6523H477.717ZM478.742 89.0938V91.2539H470.239V89.0938H478.742Z" fill="#D7B56D"/>
</svg>
